HIERARCHY
ROOT hip
{
  OFFSET 9.61854 105.935 -5.39096
  CHANNELS 6 Xposition Yposition Zposition Zrotation Xrotation Yrotation
  JOINT abdomen
  {
    OFFSET 0 -1.186 -1.50178
    CHANNELS 6 Xposition Yposition Zposition Zrotation Xrotation Yrotation
    JOINT abdomen2
    {
      OFFSET 0 9.964 0.21338
      CHANNELS 6 Xposition Yposition Zposition Zrotation Xrotation Yrotation
      JOINT chest
      {
        OFFSET 0 13.134 -3.25729
        CHANNELS 6 Xposition Yposition Zposition Zrotation Xrotation Yrotation
        JOINT neck
        {
          OFFSET 0 21.686 -1.69049
          CHANNELS 6 Xposition Yposition Zposition Zrotation Xrotation Yrotation
          JOINT head
          {
            OFFSET 0 11.838 -0.12368
            CHANNELS 6 Xposition Yposition Zposition Zrotation Xrotation Yrotation
            End Site
            {
              OFFSET 0 6.717 2.38717
            }
          }
        }
        JOINT lCollar
        {
          OFFSET 1.70688 20.075 5.0056
          CHANNELS 6 Xposition Yposition Zposition Zrotation Xrotation Yrotation
          JOINT lShldr
          {
            OFFSET 13.6458 -0.047012 -4.84902
            CHANNELS 6 Xposition Yposition Zposition Zrotation Xrotation Yrotation
            JOINT lForeArm
            {
              OFFSET 28.3255 -0.975903 2.28883
              CHANNELS 6 Xposition Yposition Zposition Zrotation Xrotation Yrotation
              JOINT lHand
              {
                OFFSET 22.1583 -0.530035 10.8316
                CHANNELS 6 Xposition Yposition Zposition Zrotation Xrotation Yrotation
                JOINT lThumb1
                {
                  OFFSET 0.785995 0.111999 2.58168
                  CHANNELS 6 Xposition Yposition Zposition Zrotation Xrotation Yrotation
                  JOINT lThumb2
                  {
                    OFFSET 0.3601 -0.878005 4.2331
                    CHANNELS 6 Xposition Yposition Zposition Zrotation Xrotation Yrotation
                    End Site
                    {
                      OFFSET 1.81271 -1.21601 2.2227
                    }
                  }
                }
                JOINT lCarpal1
                {
                  OFFSET 0.9571 1.114 1.76948
                  CHANNELS 6 Xposition Yposition Zposition Zrotation Xrotation Yrotation
                  JOINT lIndex1
                  {
                    OFFSET 4.1246 0.487 4.1451
                    CHANNELS 6 Xposition Yposition Zposition Zrotation Xrotation Yrotation
                    JOINT lIndex2
                    {
                      OFFSET 3.40521 -1.45401 2.7682
                      CHANNELS 6 Xposition Yposition Zposition Zrotation Xrotation Yrotation
                      End Site
                      {
                        OFFSET 1.4531 -1.795 1.2713
                      }
                    }
                  }
                  JOINT lMid1
                  {
                    OFFSET 5.6954 0.209991 2.1184
                    CHANNELS 6 Xposition Yposition Zposition Zrotation Xrotation Yrotation
                    JOINT lMid2
                    {
                      OFFSET 3.9766 -1.53999 2.3863
                      CHANNELS 6 Xposition Yposition Zposition Zrotation Xrotation Yrotation
                      End Site
                      {
                        OFFSET 1.4042 -1.926 1.125
                      }
                    }
                  }
                }
                JOINT lCarpal2
                {
                  OFFSET 2.09559 0.65999 -0.38939
                  CHANNELS 6 Xposition Yposition Zposition Zrotation Xrotation Yrotation
                  JOINT lRing1
                  {
                    OFFSET 5.0395 -0.089997 2.49707
                    CHANNELS 6 Xposition Yposition Zposition Zrotation Xrotation Yrotation
                    JOINT lRing2
                    {
                      OFFSET 3.7921 -1.552 1.4806
                      CHANNELS 6 Xposition Yposition Zposition Zrotation Xrotation Yrotation
                      End Site
                      {
                        OFFSET 1.4655 -1.808 0.9609
                      }
                    }
                  }
                  JOINT lPinky1
                  {
                    OFFSET 4.9141 -1.269 0.35915
                    CHANNELS 6 Xposition Yposition Zposition Zrotation Xrotation Yrotation
                    JOINT lPinky2
                    {
                      OFFSET 3.1477 -1.685 0.84623
                      CHANNELS 6 Xposition Yposition Zposition Zrotation Xrotation Yrotation
                      End Site
                      {
                        OFFSET 0.805505 -1.58499 0.79549
                      }
                    }
                  }
                }
              }
            }
          }
        }
        JOINT rCollar
        {
          OFFSET -1.70688 20.075 5.0056
          CHANNELS 6 Xposition Yposition Zposition Zrotation Xrotation Yrotation
          JOINT rShldr
          {
            OFFSET -13.6458 -0.047012 -4.84902
            CHANNELS 6 Xposition Yposition Zposition Zrotation Xrotation Yrotation
            JOINT rForeArm
            {
              OFFSET -28.3255 -0.975903 2.28883
              CHANNELS 6 Xposition Yposition Zposition Zrotation Xrotation Yrotation
              JOINT rHand
              {
                OFFSET -22.1583 -0.530036 10.8316
                CHANNELS 6 Xposition Yposition Zposition Zrotation Xrotation Yrotation
                JOINT rThumb1
                {
                  OFFSET -0.785995 0.111999 2.58168
                  CHANNELS 6 Xposition Yposition Zposition Zrotation Xrotation Yrotation
                  JOINT rThumb2
                  {
                    OFFSET -0.3601 -0.878005 4.2331
                    CHANNELS 6 Xposition Yposition Zposition Zrotation Xrotation Yrotation
                    End Site
                    {
                      OFFSET -1.81271 -1.21601 2.2227
                    }
                  }
                }
                JOINT rCarpal1
                {
                  OFFSET -0.9571 1.114 1.76948
                  CHANNELS 6 Xposition Yposition Zposition Zrotation Xrotation Yrotation
                  JOINT rIndex1
                  {
                    OFFSET -4.1246 0.487 4.1451
                    CHANNELS 6 Xposition Yposition Zposition Zrotation Xrotation Yrotation
                    JOINT rIndex2
                    {
                      OFFSET -3.40521 -1.45401 2.7682
                      CHANNELS 6 Xposition Yposition Zposition Zrotation Xrotation Yrotation
                      End Site
                      {
                        OFFSET -1.4531 -1.795 1.2713
                      }
                    }
                  }
                  JOINT rMid1
                  {
                    OFFSET -5.6954 0.209991 2.1184
                    CHANNELS 6 Xposition Yposition Zposition Zrotation Xrotation Yrotation
                    JOINT rMid2
                    {
                      OFFSET -3.9766 -1.53999 2.3863
                      CHANNELS 6 Xposition Yposition Zposition Zrotation Xrotation Yrotation
                      End Site
                      {
                        OFFSET -1.4042 -1.926 1.125
                      }
                    }
                  }
                }
                JOINT rCarpal2
                {
                  OFFSET -2.09559 0.65999 -0.38939
                  CHANNELS 6 Xposition Yposition Zposition Zrotation Xrotation Yrotation
                  JOINT rRing1
                  {
                    OFFSET -5.0395 -0.089997 2.49707
                    CHANNELS 6 Xposition Yposition Zposition Zrotation Xrotation Yrotation
                    JOINT rRing2
                    {
                      OFFSET -3.7921 -1.552 1.4806
                      CHANNELS 6 Xposition Yposition Zposition Zrotation Xrotation Yrotation
                      End Site
                      {
                        OFFSET -1.4655 -1.808 0.9609
                      }
                    }
                  }
                  JOINT rPinky1
                  {
                    OFFSET -4.9141 -1.269 0.35915
                    CHANNELS 6 Xposition Yposition Zposition Zrotation Xrotation Yrotation
                    JOINT rPinky2
                    {
                      OFFSET -3.1477 -1.685 0.84623
                      CHANNELS 6 Xposition Yposition Zposition Zrotation Xrotation Yrotation
                      End Site
                      {
                        OFFSET -0.805505 -1.58499 0.79549
                      }
                    }
                  }
                }
              }
            }
          }
        }
      }
    }
  }
  JOINT lThigh
  {
    OFFSET 8.367 -8.2066 0.59823
    CHANNELS 6 Xposition Yposition Zposition Zrotation Xrotation Yrotation
    JOINT lShin
    {
      OFFSET 2.19232 -43.463 -0.493181
      CHANNELS 6 Xposition Yposition Zposition Zrotation Xrotation Yrotation
      JOINT lFoot
      {
        OFFSET 0.733257 -45.8593 -2.64513
        CHANNELS 6 Xposition Yposition Zposition Zrotation Xrotation Yrotation
        End Site
        {
          OFFSET 2.6618 -4.26993 12.3931
        }
      }
    }
  }
  JOINT rThigh
  {
    OFFSET -8.367 -8.2066 0.59823
    CHANNELS 6 Xposition Yposition Zposition Zrotation Xrotation Yrotation
    JOINT rShin
    {
      OFFSET -2.19233 -43.463 -0.493108
      CHANNELS 6 Xposition Yposition Zposition Zrotation Xrotation Yrotation
      JOINT rFoot
      {
        OFFSET -0.733256 -45.8593 -2.64514
        CHANNELS 6 Xposition Yposition Zposition Zrotation Xrotation Yrotation
        End Site
        {
          OFFSET -2.6618 -4.26993 12.3931
        }
      }
    }
  }
}
MOTION
Frames:	4
Frame Time:	0.0333333
-3.25135 104.036 -221.601 -3.05776 0.348681 1.53772 -8.88179e-016 -1.186 -1.50178 0.553279 1.48419 0.336561 8.88179e-016 9.964 0.21338 1.09838 2.97155 0.659097 0 13.134 -3.25729 1.09838 2.97154 0.659096 0 21.686 -1.69049 -4.10421 -3.53397 -0.575955 0 11.838 -0.12368 -0.0567284 -7.93984 -2.72229 1.70688 20.075 5.0056 -4.14166 1.0008 -9.67574 13.6458 -0.047012 -4.84902 -61.7552 -13.2158 16.9966 28.3255 -0.975903 2.28883 -8.86427 11.1818 3.36248 22.1583 -0.530035 10.8316 0.577853 18.7107 -5.73344 0.785995 0.111999 2.58168 7.95139e-016 -3.18055e-015 -3.18055e-015 0.3601 -0.878005 4.2331 -3.53113e-031 -6.36111e-015 -3.18055e-015 0.9571 1.114 1.76948 7.95139e-016 -3.18055e-015 -3.18055e-015 4.1246 0.487 4.1451 -3.53113e-031 -6.36111e-015 -3.18055e-015 3.40521 -1.45401 2.7682 -7.95139e-016 -6.36111e-015 -0 5.6954 0.209991 2.1184 -3.53113e-031 -6.36111e-015 -3.18055e-015 3.9766 -1.53999 2.3863 -7.95139e-016 -6.36111e-015 -0 2.09559 0.65999 -0.38939 7.95139e-016 -3.18055e-015 -3.18055e-015 5.0395 -0.089997 2.49707 -3.53113e-031 -6.36111e-015 -3.18055e-015 3.7921 -1.552 1.4806 -7.95139e-016 -6.36111e-015 -0 4.9141 -1.269 0.35915 -3.53113e-031 -6.36111e-015 -3.18055e-015 3.1477 -1.685 0.84623 -7.95139e-016 -6.36111e-015 -0 -1.70688 20.075 5.0056 5.95184 1.32236 12.1224 -13.6458 -0.047012 -4.84902 69.5441 0.0755786 0.708487 -28.3255 -0.975903 2.28883 1.85561 -14.7205 8.82379 -22.1583 -0.530036 10.8316 6.46703 0.353975 5.03202 -0.785995 0.111999 2.58168 4.96962e-016 -3.97569e-016 1.59028e-015 -0.3601 -0.878005 4.2331 -2.98177e-016 0 1.59028e-015 -0.9571 1.114 1.76948 4.96962e-016 -3.97569e-016 1.59028e-015 -4.1246 0.487 4.1451 -2.98177e-016 0 1.59028e-015 -3.40521 -1.45401 2.7682 3.97569e-016 3.97569e-016 -0 -5.6954 0.209991 2.1184 -2.98177e-016 0 1.59028e-015 -3.9766 -1.53999 2.3863 3.97569e-016 3.97569e-016 -0 -2.09559 0.65999 -0.38939 4.96962e-016 -3.97569e-016 1.59028e-015 -5.0395 -0.089997 2.49707 -2.98177e-016 0 1.59028e-015 -3.7921 -1.552 1.4806 3.97569e-016 3.97569e-016 -0 -4.9141 -1.269 0.35915 -2.98177e-016 0 1.59028e-015 -3.1477 -1.685 0.84623 3.97569e-016 3.97569e-016 -0 8.367 -8.2066 0.59823 -3.01021 -24.7696 -9.9639 2.19232 -43.463 -0.493181 -1.05828 19.7147 1.57598 0.733257 -45.8593 -2.64513 -1.01152 2.8191 3.99799 -8.367 -8.2066 0.59823 1.42671 7.02581 1.90055 -2.19233 -43.463 -0.493108 11.4104 44.1012 -6.76451 -0.733256 -45.8593 -2.64514 9.19535 14.7294 5.2073 
-2.46082 105.121 -216.665 -4.2564 -0.103034 0.0181506 0 -1.186 -1.50178 0.902341 1.58082 0.444054 0 9.964 0.21338 1.79342 3.16841 0.863635 -8.88179e-016 13.134 -3.25729 1.79342 3.1684 0.863633 -8.88179e-016 21.686 -1.69049 -4.54796 -3.31234 -0.585939 8.88179e-016 11.838 -0.12368 -0.179116 -8.03279 -1.98512 1.70688 20.075 5.0056 -4.99032 1.27637 -9.99256 13.6458 -0.047012 -4.84902 -61.2837 -10.7862 14.7061 28.3255 -0.975903 2.28883 -9.05984 8.71188 3.08691 22.1583 -0.530035 10.8316 0.416497 17.0035 -6.01368 0.785995 0.111999 2.58168 1.59028e-015 0 3.18055e-015 0.3601 -0.878005 4.2331 1.76556e-031 -3.18055e-015 3.18055e-015 0.9571 1.114 1.76948 1.59028e-015 0 3.18055e-015 4.1246 0.487 4.1451 1.76556e-031 -3.18055e-015 3.18055e-015 3.40521 -1.45401 2.7682 -7.95139e-016 0 4.77083e-015 5.6954 0.209991 2.1184 1.76556e-031 -3.18055e-015 3.18055e-015 3.9766 -1.53999 2.3863 -7.95139e-016 0 4.77083e-015 2.09559 0.65999 -0.38939 1.59028e-015 0 3.18055e-015 5.0395 -0.089997 2.49707 1.76556e-031 -3.18055e-015 3.18055e-015 3.7921 -1.552 1.4806 -7.95139e-016 0 4.77083e-015 4.9141 -1.269 0.35915 1.76556e-031 -3.18055e-015 3.18055e-015 3.1477 -1.685 0.84623 -7.95139e-016 0 4.77083e-015 -1.70688 20.075 5.0056 6.97705 1.54773 12.5739 -13.6458 -0.047012 -4.84902 68.6189 -0.853992 0.0932207 -28.3255 -0.975903 2.28883 1.60153 -15.0271 6.77841 -22.1583 -0.530036 10.8316 6.16703 0.0996682 3.59283 -0.785995 0.111999 2.58168 2.54693e-016 0 -7.95139e-016 -0.3601 -0.878005 4.2331 1.04983e-015 0 -0 -0.9571 1.114 1.76948 2.54693e-016 0 -7.95139e-016 -4.1246 0.487 4.1451 1.04983e-015 0 -0 -3.40521 -1.45401 2.7682 1.03741e-015 -9.93923e-017 -0 -5.6954 0.209991 2.1184 1.04983e-015 0 -0 -3.9766 -1.53999 2.3863 1.03741e-015 -9.93923e-017 -0 -2.09559 0.65999 -0.38939 2.54693e-016 0 -7.95139e-016 -5.0395 -0.089997 2.49707 1.04983e-015 0 -0 -3.7921 -1.552 1.4806 1.03741e-015 -9.93923e-017 -0 -4.9141 -1.269 0.35915 1.04983e-015 0 -0 -3.1477 -1.685 0.84623 1.03741e-015 -9.93923e-017 -0 8.367 -8.2066 0.59823 -1.42601 -21.1715 -5.70675 2.19232 -43.463 -0.493181 0.00953293 19.9693 1.56804 0.733257 -45.8593 -2.64513 0.40718 0.243717 1.5233 -8.367 -8.2066 0.59823 1.91915 0.119462 5.17024 -2.19233 -43.463 -0.493108 18.1792 53.0297 -10.9284 -0.733256 -45.8593 -2.64514 9.00274 14.0283 4.47225 
-1.90482 106.134 -211.957 -5.39377 -0.159338 -1.72329 0 -1.186 -1.50178 1.2053 1.65284 0.61171 0 9.964 0.21338 2.39438 3.31809 1.18923 0 13.134 -3.25729 2.39438 3.31809 1.18923 0 21.686 -1.69049 -4.58744 -3.40093 -0.607654 -8.88179e-016 11.838 -0.12368 -0.329828 -7.9692 -1.29815 1.70688 20.075 5.0056 -5.35277 1.3978 -10.136 13.6458 -0.047012 -4.84902 -61.0704 -7.61132 12.0481 28.3255 -0.975903 2.28883 -9.48339 4.41623 2.36523 22.1583 -0.530035 10.8316 0.489375 17.0701 -6.54239 0.785995 0.111999 2.58168 3.97569e-015 0 -3.18055e-015 0.3601 -0.878005 4.2331 -1.59028e-015 3.18055e-015 -3.18055e-015 0.9571 1.114 1.76948 3.97569e-015 0 -3.18055e-015 4.1246 0.487 4.1451 -1.59028e-015 3.18055e-015 -3.18055e-015 3.40521 -1.45401 2.7682 -3.18055e-015 3.18055e-015 1.59028e-015 5.6954 0.209991 2.1184 -1.59028e-015 3.18055e-015 -3.18055e-015 3.9766 -1.53999 2.3863 -3.18055e-015 3.18055e-015 1.59028e-015 2.09559 0.65999 -0.38939 3.97569e-015 0 -3.18055e-015 5.0395 -0.089997 2.49707 -1.59028e-015 3.18055e-015 -3.18055e-015 3.7921 -1.552 1.4806 -3.18055e-015 3.18055e-015 1.59028e-015 4.9141 -1.269 0.35915 -1.59028e-015 3.18055e-015 -3.18055e-015 3.1477 -1.685 0.84623 -3.18055e-015 3.18055e-015 1.59028e-015 -1.70688 20.075 5.0056 7.63182 1.64641 12.3217 -13.6458 -0.047012 -4.84902 68.1286 -1.07376 -0.11556 -28.3255 -0.975903 2.28883 1.30769 -15.2136 4.91757 -22.1583 -0.530036 10.8316 5.83979 1.93955 3.27012 -0.785995 0.111999 2.58168 3.29237e-016 -9.93923e-017 3.97569e-016 -0.3601 -0.878005 4.2331 3.35449e-016 0 -0 -0.9571 1.114 1.76948 3.29237e-016 -9.93923e-017 3.97569e-016 -4.1246 0.487 4.1451 3.35449e-016 0 -0 -3.40521 -1.45401 2.7682 3.41661e-016 9.93923e-017 -0 -5.6954 0.209991 2.1184 3.35449e-016 0 -0 -3.9766 -1.53999 2.3863 3.41661e-016 9.93923e-017 -0 -2.09559 0.65999 -0.38939 3.29237e-016 -9.93923e-017 3.97569e-016 -5.0395 -0.089997 2.49707 3.35449e-016 0 -0 -3.7921 -1.552 1.4806 3.41661e-016 9.93923e-017 -0 -4.9141 -1.269 0.35915 3.35449e-016 0 -0 -3.1477 -1.685 0.84623 3.41661e-016 9.93923e-017 -0 8.367 -8.2066 0.59823 0.407008 -17.3639 -2.89029 2.19232 -43.463 -0.493181 -0.216633 18.868 1.50946 0.733257 -45.8593 -2.64513 0.84814 -1.86278 0.809833 -8.367 -8.2066 0.59823 2.99829 -6.75568 6.80377 -2.19233 -43.463 -0.493108 23.0074 58.9218 -14.7861 -0.733256 -45.8593 -2.64514 8.10837 12.7953 6.37092 
-1.58029 106.989 -207.235 -6.04447 -0.211318 -2.93682 0 -1.186 -1.50178 1.3957 1.71562 0.651576 -3.55271e-015 9.964 0.21338 2.77365 3.4465 1.26199 0 13.134 -3.25729 2.77366 3.44652 1.26199 4.44089e-016 21.686 -1.69049 -4.36327 -3.34177 -0.593736 0 11.838 -0.12368 -0.454077 -7.77102 -0.725754 1.70688 20.075 5.0056 -5.0526 1.3461 -10.2887 13.6458 -0.047012 -4.84902 -61.0476 -4.61012 9.74882 28.3255 -0.975903 2.28883 -10.0229 0.138839 0.777539 22.1583 -0.530035 10.8316 0.754071 15.858 -6.4816 0.785995 0.111999 2.58168 1.98785e-015 -3.18055e-015 -0 0.3601 -0.878005 4.2331 2.38542e-015 0 -0 0.9571 1.114 1.76948 1.98785e-015 -3.18055e-015 -0 4.1246 0.487 4.1451 2.38542e-015 0 -0 3.40521 -1.45401 2.7682 2.38542e-015 0 -3.18055e-015 5.6954 0.209991 2.1184 2.38542e-015 0 -0 3.9766 -1.53999 2.3863 2.38542e-015 0 -3.18055e-015 2.09559 0.65999 -0.38939 1.98785e-015 -3.18055e-015 -0 5.0395 -0.089997 2.49707 2.38542e-015 0 -0 3.7921 -1.552 1.4806 2.38542e-015 0 -3.18055e-015 4.9141 -1.269 0.35915 2.38542e-015 0 -0 3.1477 -1.685 0.84623 2.38542e-015 0 -3.18055e-015 -1.70688 20.075 5.0056 7.6954 1.6427 12.1377 -13.6458 -0.047012 -4.84902 68.3661 -1.75823 -0.545808 -28.3255 -0.975903 2.28883 1.0292 -14.5992 3.572 -22.1583 -0.530036 10.8316 5.35851 3.87553 3.30737 -0.785995 0.111999 2.58168 1.18339e-015 -1.98785e-016 3.97569e-016 -0.3601 -0.878005 4.2331 -4.06887e-016 0 -0 -0.9571 1.114 1.76948 1.18339e-015 -1.98785e-016 3.97569e-016 -4.1246 0.487 4.1451 -4.06887e-016 0 -0 -3.40521 -1.45401 2.7682 -4.03781e-016 1.98785e-016 1.98785e-016 -5.6954 0.209991 2.1184 -4.06887e-016 0 -0 -3.9766 -1.53999 2.3863 -4.03781e-016 1.98785e-016 1.98785e-016 -2.09559 0.65999 -0.38939 1.18339e-015 -1.98785e-016 3.97569e-016 -5.0395 -0.089997 2.49707 -4.06887e-016 0 -0 -3.7921 -1.552 1.4806 -4.03781e-016 1.98785e-016 1.98785e-016 -4.9141 -1.269 0.35915 -4.06887e-016 0 -0 -3.1477 -1.685 0.84623 -4.03781e-016 1.98785e-016 1.98785e-016 8.367 -8.2066 0.59823 1.54512 -12.9274 -0.485924 2.19232 -43.463 -0.493181 -0.350219 16.5059 1.30344 0.733257 -45.8593 -2.64513 1.01043 -3.34949 -0.0392184 -8.367 -8.2066 0.59823 3.77037 -12.4825 7.78372 -2.19233 -43.463 -0.493108 26.4573 60.92 -16.8203 -0.733256 -45.8593 -2.64514 7.57743 10.733 6.64462 
